<?xml version="1.0" encoding="UTF-8" standalone="no"?><svg xmlns="http://www.w3.org/2000/svg" xmlns:xlink="http://www.w3.org/1999/xlink" contentScriptType="application/ecmascript" contentStyleType="text/css" height="239px" preserveAspectRatio="none" style="width:315px;height:239px;" version="1.1" viewBox="0 0 315 239" width="315px" zoomAndPan="magnify"><defs><filter height="300%" id="fodurtjuveldr" width="300%" x="-1" y="-1"><feGaussianBlur result="blurOut" stdDeviation="2.0"/><feColorMatrix in="blurOut" result="blurOut2" type="matrix" values="0 0 0 0 0 0 0 0 0 0 0 0 0 0 0 0 0 0 .4 0"/><feOffset dx="4.0" dy="4.0" in="blurOut2" result="blurOut3"/><feBlend in="SourceGraphic" in2="blurOut3" mode="normal"/></filter></defs><g><!--MD5=[2f4e497837a991172d40b04b7a7d0ca2]
class Singleton--><rect codeLine="10" fill="#F0F8FF" filter="url(#fodurtjuveldr)" height="86.8652" id="Singleton" rx="5" ry="5" style="stroke: #2F4F4F; stroke-width: 1.5;" width="153" x="51" y="7"/><ellipse cx="97.75" cy="23" fill="#ADD1B2" rx="11" ry="11" style="stroke: #2F4F4F; stroke-width: 1.0;"/><path d="M100.2231,29.1431 Q99.6421,29.4419 99.0029,29.5913 Q98.3638,29.7407 97.6582,29.7407 Q95.1514,29.7407 93.8315,28.0889 Q92.5117,26.437 92.5117,23.3159 Q92.5117,20.1865 93.8315,18.5347 Q95.1514,16.8828 97.6582,16.8828 Q98.3638,16.8828 99.0112,17.0322 Q99.6587,17.1816 100.2231,17.4805 L100.2231,20.2031 Q99.5923,19.6221 98.9988,19.3523 Q98.4053,19.0825 97.7744,19.0825 Q96.4297,19.0825 95.7449,20.1492 Q95.0601,21.2158 95.0601,23.3159 Q95.0601,25.4077 95.7449,26.4744 Q96.4297,27.541 97.7744,27.541 Q98.4053,27.541 98.9988,27.2712 Q99.5923,27.0015 100.2231,26.4204 Z "/><text fill="#000000" font-family="TrebuchetMS" font-size="12" lengthAdjust="spacingAndGlyphs" textLength="51" x="118.25" y="27.3008">Singleton</text><line style="stroke: #2F4F4F; stroke-width: 1.5;" x1="52" x2="203" y1="39" y2="39"/><text fill="#000000" font-family="sans-serif" font-size="11" lengthAdjust="spacingAndGlyphs" text-decoration="underline" textLength="141" x="57" y="53.6348">uniqueInstance : Singleton</text><line style="stroke: #2F4F4F; stroke-width: 1.5;" x1="52" x2="203" y1="59.9551" y2="59.9551"/><text fill="#000000" font-family="sans-serif" font-size="11" lengthAdjust="spacingAndGlyphs" textLength="65" x="57" y="74.5898">#Singleton()</text><text fill="#000000" font-family="sans-serif" font-size="11" lengthAdjust="spacingAndGlyphs" text-decoration="underline" textLength="138" x="57" y="87.5449">+getInstance() : Singleton</text><path d="M6,159 L6,220.2422 A5,5 0 0 0 11,225.2422 L244,225.2422 A5,5 0 0 0 249,220.2422 L249,164 L239,154 L131.5,154 L127.5,94.1 L123.5,154 L11,154 A5,5 0 0 0 6,159 " fill="#FBFB77" filter="url(#fodurtjuveldr)" style="stroke: #A80036; stroke-width: 1.0;"/><path d="M239,154 L239,161.5 A2.5,2.5 0 0 0 241.5,164 L249,164 L239,154 " fill="#FBFB77" style="stroke: #A80036; stroke-width: 1.0;"/><text fill="#000000" font-family="sans-serif" font-size="13" lengthAdjust="spacingAndGlyphs" textLength="169" x="12" y="171.5684">if uniqueInstance == null {</text><text fill="#000000" font-family="sans-serif" font-size="13" lengthAdjust="spacingAndGlyphs" textLength="214" x="20" y="186.8789">uniqueInstance = new Singleton();</text><text fill="#000000" font-family="sans-serif" font-size="13" lengthAdjust="spacingAndGlyphs" textLength="4" x="12" y="202.1895">}</text><text fill="#000000" font-family="sans-serif" font-size="13" lengthAdjust="spacingAndGlyphs" textLength="142" x="12" y="217.5">return uniqueInstance;</text><!--MD5=[606bfff5e731bbe500a8872b8636183b]
link Singleton to Singleton--><path codeLine="16" d="M204.11,24.89 C224,26.47 239,35 239,50.5 C239,64.67 226.47,73.02 209.12,75.55 " fill="none" id="Singleton-to-Singleton" style="stroke: #000000; stroke-width: 1.0;"/><polygon fill="#000000" points="204.11,76.11,213.4995,79.0828,209.0789,75.5531,212.6085,71.1325,204.11,76.11" style="stroke: #000000; stroke-width: 1.0;"/><text fill="#000000" font-family="sans-serif" font-size="13" lengthAdjust="spacingAndGlyphs" textLength="96" x="212.0928" y="74.8528">uniqueInstance</text><!--MD5=[a7f75b18fbe6193cdb47c91fbf714368]
@startuml

'- - - - - - - - - - - - - - - - - - - - - - - - - - - - - - - - - - -
' UML concepts illustrated
' JMB 2014
'- - - - - - - - - - - - - - - - - - - - - - - - - - - - - - - - - - -

!include util/config.cfg
skinparam classAttributeIconSize 0

class Singleton {
{static} uniqueInstance : Singleton
# Singleton()
{static} + getInstance() : Singleton
}

Singleton - -> "uniqueInstance" Singleton
note "if uniqueInstance == null {\n  uniqueInstance = new Singleton();\n}\nreturn uniqueInstance;" as N
Singleton .. N

@enduml

@startuml



hide empty members
hide empty methods


skinparam package {
	BackgroundColor empty
	BorderColor DarkSlateGray
	ArrowColor Black
	FontColor Black
	FontSize 12
	FontName TrebuchetMS
}
skinparam roundcorner 10

skinparam class {
	BackgroundColor AliceBlue
	BorderColor DarkSlateGray
	ArrowColor Black
	FontColor Black
	FontSize 12
	FontName TrebuchetMS
}
skinparam arrow {
    MessageAlign center
}
skinparam classAttributeIconSize 0

class Singleton {
{static} uniqueInstance : Singleton
# Singleton()
{static} + getInstance() : Singleton
}

Singleton - -> "uniqueInstance" Singleton
note "if uniqueInstance == null {\n  uniqueInstance = new Singleton();\n}\nreturn uniqueInstance;" as N
Singleton .. N

@enduml

PlantUML version 1.2020.18(Wed Sep 30 21:40:44 CEST 2020)
(GPL source distribution)
Java Runtime: OpenJDK Runtime Environment
JVM: OpenJDK 64-Bit Server VM
Default Encoding: UTF-8
Language: fr
Country: FR
--></g></svg>