<?xml version="1.0" encoding="UTF-8" standalone="no"?><svg xmlns="http://www.w3.org/2000/svg" xmlns:xlink="http://www.w3.org/1999/xlink" contentScriptType="application/ecmascript" contentStyleType="text/css" height="167px" preserveAspectRatio="none" style="width:330px;height:167px;" version="1.1" viewBox="0 0 330 167" width="330px" zoomAndPan="magnify"><defs><filter height="300%" id="f194kf11is7a81" width="300%" x="-1" y="-1"><feGaussianBlur result="blurOut" stdDeviation="2.0"/><feColorMatrix in="blurOut" result="blurOut2" type="matrix" values="0 0 0 0 0 0 0 0 0 0 0 0 0 0 0 0 0 0 .4 0"/><feOffset dx="4.0" dy="4.0" in="blurOut2" result="blurOut3"/><feBlend in="SourceGraphic" in2="blurOut3" mode="normal"/></filter></defs><g><ellipse cx="38" cy="16" fill="#000000" filter="url(#f194kf11is7a81)" rx="10" ry="10" style="stroke: none; stroke-width: 1.0;"/><g id="Empty"><rect fill="#FEFECE" filter="url(#f194kf11is7a81)" height="50" rx="12.5" ry="12.5" style="stroke: #A80036; stroke-width: 1.5;" width="62" x="7" y="103"/><line style="stroke: #A80036; stroke-width: 1.5;" x1="7" x2="69" y1="129.4883" y2="129.4883"/><text fill="#000000" font-family="sans-serif" font-size="14" lengthAdjust="spacingAndGlyphs" textLength="42" x="17" y="121.5352">Empty</text></g><g id="Full"><rect fill="#FEFECE" filter="url(#f194kf11is7a81)" height="50" rx="12.5" ry="12.5" style="stroke: #A80036; stroke-width: 1.5;" width="50" x="131" y="103"/><line style="stroke: #A80036; stroke-width: 1.5;" x1="131" x2="181" y1="129.4883" y2="129.4883"/><text fill="#000000" font-family="sans-serif" font-size="14" lengthAdjust="spacingAndGlyphs" textLength="25" x="143.5" y="121.5352">Full</text></g><g id="Boiling"><rect fill="#FEFECE" filter="url(#f194kf11is7a81)" height="50" rx="12.5" ry="12.5" style="stroke: #A80036; stroke-width: 1.5;" width="67" x="249.5" y="103"/><line style="stroke: #A80036; stroke-width: 1.5;" x1="249.5" x2="316.5" y1="129.4883" y2="129.4883"/><text fill="#000000" font-family="sans-serif" font-size="14" lengthAdjust="spacingAndGlyphs" textLength="47" x="259.5" y="121.5352">Boiling</text></g><!--MD5=[1b6c22f718d70b2acdc4891e2995ec55]
link *start to Empty--><path d="M38,26 C38,41.46 38,73.68 38,97.6 " fill="none" id="*start-to-Empty" style="stroke: #000000; stroke-width: 1.0;"/><polygon fill="#000000" points="38,102.87,42,93.87,38,97.87,34,93.87,38,102.87" style="stroke: #000000; stroke-width: 1.0;"/><!--MD5=[90368b376c9d0f7b83c63d44c64b43f0]
link Empty to Full--><path d="M69,128 C86.45,128 108.16,128 125.52,128 " fill="none" id="Empty-to-Full" style="stroke: #000000; stroke-width: 1.0;"/><polygon fill="#000000" points="130.76,128,121.76,124,125.76,128,121.76,132,130.76,128" style="stroke: #000000; stroke-width: 1.0;"/><text fill="#000000" font-family="sans-serif" font-size="13" lengthAdjust="spacingAndGlyphs" textLength="25" x="87.5" y="121.5684">fill()</text><!--MD5=[4e0397774ff6485472f425bbc99b8510]
link Full to Boiling--><path d="M181.09,128 C199.08,128 223.67,128 244.18,128 " fill="none" id="Full-to-Boiling" style="stroke: #000000; stroke-width: 1.0;"/><polygon fill="#000000" points="249.3,128,240.3,124,244.3,128,240.3,132,249.3,128" style="stroke: #000000; stroke-width: 1.0;"/><text fill="#000000" font-family="sans-serif" font-size="13" lengthAdjust="spacingAndGlyphs" textLength="32" x="199.25" y="121.5684">boil()</text><!--MD5=[5a64e177dd46fda943fc29c62441d124]
link Boiling to Empty--><path d="M254.36,102.91 C225.66,80.88 179.87,54.07 138,66 C114.44,72.71 91.01,86.74 72.75,99.76 " fill="none" id="Boiling-to-Empty" style="stroke: #000000; stroke-width: 1.0;"/><polygon fill="#000000" points="68.7,102.69,78.3386,100.6658,72.7541,99.7636,73.6563,94.1791,68.7,102.69" style="stroke: #000000; stroke-width: 1.0;"/><text fill="#000000" font-family="sans-serif" font-size="13" lengthAdjust="spacingAndGlyphs" textLength="40" x="139" y="69.5684">drain()</text><!--MD5=[fa814160a46a1a3b76b7e369ba905d13]
@startuml

!include util/config.cfg

[*] - -> Empty
Empty -> Full : fill()
Full -> Boiling : boil()
Boiling -> Empty : drain()

@enduml

@startuml


hide empty members
hide empty methods


skinparam package {
	BackgroundColor empty
	BorderColor DarkSlateGray
	ArrowColor Black
	FontColor Black
	FontSize 12
	FontName TrebuchetMS
}
skinparam roundcorner 10

skinparam class {
	BackgroundColor AliceBlue
	BorderColor DarkSlateGray
	ArrowColor Black
	FontColor Black
	FontSize 12
	FontName TrebuchetMS
}
skinparam arrow {
    MessageAlign center
}

[*] - -> Empty
Empty -> Full : fill()
Full -> Boiling : boil()
Boiling -> Empty : drain()

@enduml

PlantUML version 1.2020.18(Wed Sep 30 21:40:44 CEST 2020)
(GPL source distribution)
Java Runtime: OpenJDK Runtime Environment
JVM: OpenJDK 64-Bit Server VM
Default Encoding: UTF-8
Language: fr
Country: FR
--></g></svg>